<svg xmlns="http://www.w3.org/2000/svg" xmlns:xlink="http://www.w3.org/1999/xlink" width="40" zoomAndPan="magnify" viewBox="0 0 30 30.000001" height="40" preserveAspectRatio="xMidYMid meet" version="1.0"><defs><clipPath id="id1"><path d="M 10 2.902344 L 25.492188 2.902344 L 25.492188 21 L 10 21 Z M 10 2.902344 " clip-rule="nonzero"/></clipPath><clipPath id="id2"><path d="M 14 21 L 20 21 L 20 26.128906 L 14 26.128906 Z M 14 21 " clip-rule="nonzero"/></clipPath><clipPath id="id3"><path d="M 4.441406 21 L 9 21 L 9 26.128906 L 4.441406 26.128906 Z M 4.441406 21 " clip-rule="nonzero"/></clipPath><clipPath id="id4"><path d="M 4.441406 2.902344 L 9 2.902344 L 9 21 L 4.441406 21 Z M 4.441406 2.902344 " clip-rule="nonzero"/></clipPath></defs><g clip-path="url(#id1)"><path fill="rgb(36.859131%, 9.01947%, 92.158508%)" d="M 17.070312 20.496094 C 15.910156 20.496094 14.96875 19.550781 14.96875 18.386719 L 14.96875 15.570312 C 14.96875 14.40625 15.910156 13.460938 17.070312 13.460938 C 17.496094 13.457031 21.28125 12.757812 21.28125 9.945312 C 21.28125 8.535156 19.878906 7.128906 17.773438 7.128906 C 16.0625 7.128906 14.96875 8.535156 14.96875 9.238281 C 14.96875 10.40625 14.023438 11.351562 12.863281 11.351562 C 11.699219 11.351562 10.757812 10.40625 10.757812 9.238281 C 10.757812 5.808594 13.972656 2.910156 17.773438 2.910156 C 23.386719 2.910156 25.492188 7.117188 25.492188 10.648438 C 25.492188 13.5625 23.894531 15.792969 20.992188 16.921875 C 20.359375 17.167969 19.734375 17.335938 19.175781 17.449219 L 19.175781 18.386719 C 19.175781 19.550781 18.234375 20.496094 17.070312 20.496094 Z M 17.070312 20.496094 " fill-opacity="1" fill-rule="nonzero"/></g><g clip-path="url(#id2)"><path fill="rgb(36.859131%, 9.01947%, 92.158508%)" d="M 19.175781 24.011719 C 19.175781 24.292969 19.125 24.5625 19.015625 24.820312 C 18.910156 25.078125 18.757812 25.308594 18.558594 25.503906 C 18.363281 25.703125 18.136719 25.855469 17.878906 25.964844 C 17.621094 26.070312 17.351562 26.125 17.070312 26.125 C 16.792969 26.125 16.523438 26.070312 16.265625 25.964844 C 16.007812 25.855469 15.78125 25.703125 15.582031 25.503906 C 15.386719 25.308594 15.234375 25.078125 15.128906 24.820312 C 15.019531 24.5625 14.96875 24.292969 14.96875 24.011719 C 14.96875 23.734375 15.019531 23.464844 15.128906 23.207031 C 15.234375 22.945312 15.386719 22.71875 15.582031 22.519531 C 15.78125 22.324219 16.007812 22.171875 16.265625 22.0625 C 16.523438 21.957031 16.792969 21.902344 17.070312 21.902344 C 17.351562 21.902344 17.621094 21.957031 17.878906 22.0625 C 18.136719 22.171875 18.363281 22.324219 18.558594 22.519531 C 18.757812 22.71875 18.910156 22.945312 19.015625 23.207031 C 19.125 23.464844 19.175781 23.734375 19.175781 24.011719 Z M 19.175781 24.011719 " fill-opacity="1" fill-rule="nonzero"/></g><g clip-path="url(#id3)"><path fill="rgb(36.859131%, 9.01947%, 92.158508%)" d="M 8.652344 24.011719 C 8.652344 24.292969 8.597656 24.5625 8.492188 24.820312 C 8.386719 25.078125 8.234375 25.308594 8.035156 25.503906 C 7.839844 25.703125 7.609375 25.855469 7.351562 25.964844 C 7.09375 26.070312 6.828125 26.125 6.546875 26.125 C 6.269531 26.125 6 26.070312 5.742188 25.964844 C 5.484375 25.855469 5.257812 25.703125 5.058594 25.503906 C 4.863281 25.308594 4.710938 25.078125 4.601562 24.820312 C 4.496094 24.5625 4.441406 24.292969 4.441406 24.011719 C 4.441406 23.734375 4.496094 23.464844 4.601562 23.207031 C 4.710938 22.945312 4.863281 22.71875 5.058594 22.519531 C 5.257812 22.324219 5.484375 22.171875 5.742188 22.0625 C 6 21.957031 6.269531 21.902344 6.546875 21.902344 C 6.828125 21.902344 7.09375 21.957031 7.351562 22.0625 C 7.609375 22.171875 7.839844 22.324219 8.035156 22.519531 C 8.234375 22.71875 8.386719 22.945312 8.492188 23.207031 C 8.597656 23.464844 8.652344 23.734375 8.652344 24.011719 Z M 8.652344 24.011719 " fill-opacity="1" fill-rule="nonzero"/></g><g clip-path="url(#id4)"><path fill="rgb(36.859131%, 9.01947%, 92.158508%)" d="M 8.652344 18.386719 C 8.652344 19.550781 7.710938 20.496094 6.546875 20.496094 C 5.386719 20.496094 4.441406 19.550781 4.441406 18.386719 L 4.441406 5.019531 C 4.441406 3.851562 5.386719 2.910156 6.546875 2.910156 C 7.710938 2.910156 8.652344 3.851562 8.652344 5.019531 Z M 8.652344 18.386719 " fill-opacity="1" fill-rule="nonzero"/></g></svg>