<?xml version="1.0" standalone="no"?><svg xmlns="http://www.w3.org/2000/svg" viewBox="0 0 1440 320"><path fill="#ffffff" fill-opacity="0.15" d="M0,32L34.3,37.3C68.6,43,137,53,206,85.3C274.3,117,343,171,411,160C480,149,549,75,617,74.7C685.7,75,754,149,823,176C891.4,203,960,181,1029,165.3C1097.1,149,1166,139,1234,128C1302.9,117,1371,107,1406,101.3L1440,96L1440,320L1405.7,320C1371.4,320,1303,320,1234,320C1165.7,320,1097,320,1029,320C960,320,891,320,823,320C754.3,320,686,320,617,320C548.6,320,480,320,411,320C342.9,320,274,320,206,320C137.1,320,69,320,34,320L0,320Z"></path></svg>